<svg xmlns="http://www.w3.org/2000/svg" viewBox="0 0 64.2 63.48"><defs><style>.cls-1{fill:#70c8e3;}</style></defs><g id="Capa_2" data-name="Capa 2"><g id="Capa_3" data-name="Capa 3"><path class="cls-1" d="M32.1,63.48a22.2,22.2,0,0,1-4.12-.4l-.87-.16v-7.3h2.15v5.5a19.31,19.31,0,0,0,5.68,0v-5.5h2.15v7.3l-.87.16A22.12,22.12,0,0,1,32.1,63.48Z"/><path class="cls-1" d="M14.22,33.5l-2-.89a21.8,21.8,0,0,1,39.67,0l-2,.89a19.66,19.66,0,0,0-35.76,0Z"/><path class="cls-1" d="M52.85,56.7h-15V47.91a7.77,7.77,0,0,1,.6-3,8,8,0,0,1,1.7-2.55l10-10a4.47,4.47,0,0,1,6.32,6.32l-7.38,7.38a4.45,4.45,0,0,1-3.16,1.3V45.21a2.34,2.34,0,0,0,1.64-.68l7.38-7.38a2.32,2.32,0,0,0-3.28-3.28l-10,10a5.6,5.6,0,0,0-1.23,1.85A5.67,5.67,0,0,0,40,47.91v6.64H50.75a10.72,10.72,0,0,1,.81-3.23A11.06,11.06,0,0,1,54,47.67l7.39-7.38a2.28,2.28,0,0,0,.5-.76,2.2,2.2,0,0,0,.18-.88V19.37a2.36,2.36,0,0,0-.68-1.64,2.33,2.33,0,0,0-1.64-.67,2.3,2.3,0,0,0-2.31,2.31v9.68H55.28V19.37a4.46,4.46,0,1,1,8.92,0V38.65a4.35,4.35,0,0,1-.34,1.71,4.4,4.4,0,0,1-1,1.45l-7.38,7.38a9.08,9.08,0,0,0-2.66,6.43Z"/><polygon class="cls-1" points="55.74 62.03 53.59 62.03 53.59 56.7 37.09 56.7 37.09 62.03 34.94 62.03 34.94 54.55 55.74 54.55 55.74 62.03"/><path class="cls-1" d="M26.37,56.7h-15V55.62a9,9,0,0,0-2.67-6.43L1.31,41.8A4.42,4.42,0,0,1,0,38.65V19.37a4.39,4.39,0,0,1,1.31-3.15,4.39,4.39,0,0,1,3.15-1.31,4.47,4.47,0,0,1,4.47,4.46v9.68H6.78V19.37a2.3,2.3,0,0,0-2.32-2.31,2.32,2.32,0,0,0-2.31,2.31V38.65a2.42,2.42,0,0,0,.17.88,2.29,2.29,0,0,0,.5.75l7.39,7.39a11.25,11.25,0,0,1,2.44,3.65,11,11,0,0,1,.8,3.23H24.22V47.91a5.66,5.66,0,0,0-.43-2.19,5.79,5.79,0,0,0-1.24-1.85l-10-10a2.31,2.31,0,0,0-1.64-.67,2.31,2.31,0,0,0-1.63,3.95l7.38,7.38a2.3,2.3,0,0,0,1.63.68v2.14a4.42,4.42,0,0,1-3.15-1.3L7.76,38.67a4.47,4.47,0,0,1,6.31-6.32l10,10a7.89,7.89,0,0,1,2.3,5.56Z"/><polygon class="cls-1" points="29.26 62.03 27.11 62.03 27.11 56.7 10.62 56.7 10.62 62.03 8.47 62.03 8.47 54.55 29.26 54.55 29.26 62.03"/><path class="cls-1" d="M23.24,18.61h0a8.38,8.38,0,0,1-5.94-2.45,8.83,8.83,0,0,1-2.38-4.81L13,0,24.37,1.9a8.63,8.63,0,0,1,4.81,2.38,8.39,8.39,0,0,1-5.94,14.33Zm-7.6-16L17,11a6.63,6.63,0,0,0,1.78,3.65A6.25,6.25,0,1,0,27.66,5.8,6.44,6.44,0,0,0,24,4Z"/><path class="cls-1" d="M41,18.61A8.39,8.39,0,0,1,35,4.28,8.63,8.63,0,0,1,39.83,1.9L51.18,0l-1.9,11.35a8.8,8.8,0,0,1-2.38,4.81A8.36,8.36,0,0,1,41,18.61Zm7.6-16L40.19,4A6.5,6.5,0,0,0,36.54,5.8a6.25,6.25,0,0,0,8.84,8.84A6.5,6.5,0,0,0,47.16,11Z"/><rect class="cls-1" x="31.03" y="19.08" width="2.15" height="22.59"/><polygon class="cls-1" points="32.1 20.6 22.48 10.98 24 9.46 32.1 17.56 40.2 9.46 41.72 10.98 32.1 20.6"/></g></g></svg>