<svg xmlns="http://www.w3.org/2000/svg" viewBox="0 0 62.49 62.44"><defs><style>.cls-1{fill:#70c8e3;}</style></defs><g id="Capa_2" data-name="Capa 2"><g id="Capa_3" data-name="Capa 3"><path class="cls-1" d="M10.74,23a6.08,6.08,0,1,1,6.08-6.08A6.09,6.09,0,0,1,10.74,23Zm0-10a4,4,0,1,0,3.95,4A4,4,0,0,0,10.74,13Z"/><rect class="cls-1" x="9.68" y="47.39" width="2.12" height="15.05"/><path class="cls-1" d="M6.42,62.44H4.3V45.58H0V32a6.45,6.45,0,0,1,6.44-6.44h9.25v2.12H6.44A4.34,4.34,0,0,0,2.12,32V43.46h4.3Z"/><rect class="cls-1" x="9.68" y="29.91" width="2.12" height="2.36"/><polygon class="cls-1" points="17.18 62.44 15.05 62.44 15.05 43.46 20.41 43.46 20.41 45.58 17.18 45.58 17.18 62.44"/><path class="cls-1" d="M51.75,23a6.08,6.08,0,1,1,6.08-6.08A6.08,6.08,0,0,1,51.75,23Zm0-10a4,4,0,1,0,4,4A4,4,0,0,0,51.75,13Z"/><rect class="cls-1" x="50.69" y="47.39" width="2.12" height="15.05"/><path class="cls-1" d="M58.19,62.44H56.06v-19h4.3V32a4.32,4.32,0,0,0-4.31-4.32H46.79V25.54h9.26A6.45,6.45,0,0,1,62.49,32v13.6h-4.3Z"/><rect class="cls-1" x="50.69" y="29.91" width="2.12" height="2.36"/><polygon class="cls-1" points="47.43 62.44 45.31 62.44 45.31 45.58 42.07 45.58 42.07 43.46 47.43 43.46 47.43 62.44"/><path class="cls-1" d="M31.24,14.58a7.29,7.29,0,1,1,7.29-7.29A7.3,7.3,0,0,1,31.24,14.58Zm0-12.46a5.17,5.17,0,1,0,5.17,5.17A5.17,5.17,0,0,0,31.24,2.12Z"/><rect class="cls-1" x="30.18" y="43.76" width="2.12" height="18.68"/><rect class="cls-1" x="23.51" y="36.64" width="2.12" height="25.8"/><rect class="cls-1" x="36.85" y="36.64" width="2.12" height="25.8"/><path class="cls-1" d="M44.31,41.26H37.92V39.14h4.27V24.64A5.6,5.6,0,0,0,36.58,19h-.65l-4.69,4.68L26.55,19h-.64a5.6,5.6,0,0,0-5.61,5.61v14.5h4.27v2.12h-6.4V24.64a7.75,7.75,0,0,1,7.74-7.74h1.52l3.81,3.81,3.81-3.81h1.53a7.73,7.73,0,0,1,7.73,7.74Z"/><rect class="cls-1" x="30.18" y="25.52" width="2.12" height="2.36"/><rect class="cls-1" x="30.18" y="30.25" width="2.12" height="2.36"/></g></g></svg>