<svg xmlns="http://www.w3.org/2000/svg" viewBox="0 0 59.85 63"><defs><style>.cls-1{fill:#70c8e3;}</style></defs><g id="Capa_2" data-name="Capa 2"><g id="Capa_3" data-name="Capa 3"><path class="cls-1" d="M59.85,63h-8V45H47.12V36H37.7V23.78h5.89V10.26h6.83v4.5h4.72V37.3h4.71ZM54,61h3.77V39.33H53V16.79H48.3V12.28H45.71V25.81H39.82v8.11h9.43v9H54Z"/><path class="cls-1" d="M6.83,63H0V46.32H4.71v-27h5.66v4.51h4.71v4.51H21V36H11.55v9H6.83ZM2.12,61H4.71V48.35H2.12Zm4.71-18h2.6v-9h9.42v-3.6H13V25.81H8.25V21.3H6.83Z"/><rect class="cls-1" x="28.16" y="6.76" width="2.36" height="2.25"/><rect class="cls-1" x="28.16" y="11.27" width="2.36" height="2.25"/><rect class="cls-1" x="28.16" y="15.78" width="2.36" height="2.25"/><rect class="cls-1" x="28.16" y="20.29" width="2.36" height="2.25"/><rect class="cls-1" x="28.16" y="24.79" width="2.36" height="2.25"/><rect class="cls-1" x="28.16" y="29.3" width="2.36" height="2.25"/><rect class="cls-1" x="28.16" y="33.81" width="2.36" height="2.25"/><rect class="cls-1" x="28.16" y="38.32" width="2.36" height="2.25"/><rect class="cls-1" x="28.16" y="42.83" width="2.36" height="2.25"/><rect class="cls-1" x="28.16" y="47.33" width="2.36" height="2.25"/><rect class="cls-1" x="28.16" y="51.84" width="2.36" height="2.25"/><rect class="cls-1" x="28.16" y="56.35" width="2.36" height="2.25"/><rect class="cls-1" x="32.87" y="15.78" width="2.36" height="2.25"/><rect class="cls-1" x="32.87" y="20.29" width="2.36" height="2.25"/><rect class="cls-1" x="32.87" y="24.79" width="2.36" height="2.25"/><rect class="cls-1" x="32.87" y="29.3" width="2.36" height="2.25"/><rect class="cls-1" x="32.87" y="33.81" width="2.36" height="2.25"/><rect class="cls-1" x="32.87" y="38.32" width="2.36" height="2.25"/><rect class="cls-1" x="32.87" y="42.83" width="2.36" height="2.25"/><rect class="cls-1" x="32.87" y="47.33" width="2.36" height="2.25"/><rect class="cls-1" x="32.87" y="51.84" width="2.36" height="2.25"/><rect class="cls-1" x="32.87" y="56.35" width="2.36" height="2.25"/><rect class="cls-1" x="23.44" y="15.78" width="2.36" height="2.25"/><rect class="cls-1" x="23.44" y="20.29" width="2.36" height="2.25"/><rect class="cls-1" x="23.44" y="24.79" width="2.36" height="2.25"/><rect class="cls-1" x="23.44" y="29.3" width="2.36" height="2.25"/><rect class="cls-1" x="23.44" y="33.81" width="2.36" height="2.25"/><rect class="cls-1" x="23.44" y="38.32" width="2.36" height="2.25"/><rect class="cls-1" x="23.44" y="42.83" width="2.36" height="2.25"/><rect class="cls-1" x="23.44" y="47.33" width="2.36" height="2.25"/><rect class="cls-1" x="23.44" y="51.84" width="2.36" height="2.25"/><rect class="cls-1" x="23.44" y="56.35" width="2.36" height="2.25"/><path class="cls-1" d="M39.82,63h-21V11.38h4.71v-9H35.11v9h4.71ZM21,61H37.7V13.41H33v-9H25.68v9H21Z"/><rect class="cls-1" x="28.28" width="2.12" height="3.38"/><rect class="cls-1" x="42.29" y="38.32" width="2.36" height="2.25"/><rect class="cls-1" x="42.29" y="42.83" width="2.36" height="2.25"/><rect class="cls-1" x="42.29" y="47.33" width="2.36" height="2.25"/><rect class="cls-1" x="42.29" y="51.84" width="2.36" height="2.25"/><rect class="cls-1" x="42.29" y="56.35" width="2.36" height="2.25"/><rect class="cls-1" x="47.01" y="47.33" width="2.36" height="2.25"/><rect class="cls-1" x="47.01" y="51.84" width="2.36" height="2.25"/><rect class="cls-1" x="47.01" y="56.35" width="2.36" height="2.25"/><path class="cls-1" d="M54,63H37.7V33.92H49.25v9H54ZM39.82,61h12V45H47.12V36h-7.3Z"/><rect class="cls-1" x="14.02" y="38.32" width="2.36" height="2.25"/><rect class="cls-1" x="14.02" y="42.83" width="2.36" height="2.25"/><rect class="cls-1" x="14.02" y="47.33" width="2.36" height="2.25"/><rect class="cls-1" x="14.02" y="51.84" width="2.36" height="2.25"/><rect class="cls-1" x="14.02" y="56.35" width="2.36" height="2.25"/><rect class="cls-1" x="9.31" y="47.33" width="2.36" height="2.25"/><rect class="cls-1" x="9.31" y="51.84" width="2.36" height="2.25"/><rect class="cls-1" x="9.31" y="56.35" width="2.36" height="2.25"/><path class="cls-1" d="M21,63H4.71V42.94H9.43v-9H21ZM6.83,61h12V36h-7.3v9H6.83Z"/></g></g></svg>